<svg width="950" height="453" viewBox="0 0 950 453" fill="none" xmlns="http://www.w3.org/2000/svg">
<path d="M236.229 116.77C236.229 126.801 232.792 135.134 225.917 141.77C219.052 148.395 208.588 151.707 194.521 151.707H171.333V202.061H155.583V81.4573H194.521C208.13 81.4573 218.484 84.7489 225.583 91.3323C232.677 97.9052 236.229 106.384 236.229 116.77ZM194.521 138.728C203.281 138.728 209.74 136.827 213.896 133.02C218.047 129.218 220.125 123.801 220.125 116.77C220.125 101.884 211.588 94.4364 194.521 94.4364H171.333V138.728H194.521Z" fill="white"/>
<path d="M318.298 175.083H265.694L256.006 201.896H239.402L283.006 82H301.173L344.61 201.896H327.985L318.298 175.083ZM313.798 162.271L292.006 101.375L270.194 162.271H313.798Z" fill="white"/>
<path d="M663.298 174.083H610.694L601.006 200.896H584.402L628.006 81H646.173L689.61 200.896H672.985L663.298 174.083ZM658.798 161.271L637.006 100.375L615.194 161.271H658.798Z" fill="white"/>
<path d="M460.413 77.3636V201H445.925L378.552 103.926H377.345V201H362.373V77.3636H376.862L444.476 174.679H445.683V77.3636H460.413Z" fill="white"/>
<path d="M483.373 201V77.3636H498.345V138.699H499.794L555.334 77.3636H574.893L522.976 133.145L574.893 201H556.783L513.8 143.528L498.345 160.915V201H483.373Z" fill="white"/>
<path d="M175.373 366V242.364H190.345V303.699H191.794L247.334 242.364H266.893L214.976 298.145L266.893 366H248.783L205.8 308.528L190.345 325.915V366H175.373Z" fill="white"/>
<path d="M363.51 242.364H378.481V324.224C378.481 332.676 376.489 340.222 372.505 346.863C368.561 353.463 362.987 358.675 355.783 362.499C348.578 366.282 340.127 368.173 330.427 368.173C320.728 368.173 312.276 366.282 305.072 362.499C297.868 358.675 292.274 353.463 288.29 346.863C284.346 340.222 282.373 332.676 282.373 324.224V242.364H297.345V323.017C297.345 329.054 298.673 334.427 301.329 339.136C303.986 343.804 307.769 347.487 312.679 350.183C317.629 352.839 323.545 354.168 330.427 354.168C337.31 354.168 343.226 352.839 348.176 350.183C353.126 347.487 356.909 343.804 359.525 339.136C362.182 334.427 363.51 329.054 363.51 323.017V242.364Z" fill="white"/>
<path d="M682.373 371V247.364H724.149C733.808 247.364 741.737 249.014 747.935 252.314C754.132 255.574 758.721 260.061 761.699 265.776C764.677 271.491 766.166 277.991 766.166 285.276C766.166 292.56 764.677 299.02 761.699 304.654C758.721 310.289 754.153 314.716 747.995 317.935C741.837 321.115 733.969 322.705 724.39 322.705H690.584V309.182H723.908C730.508 309.182 735.82 308.216 739.845 306.284C743.91 304.352 746.848 301.616 748.659 298.074C750.51 294.492 751.436 290.226 751.436 285.276C751.436 280.325 750.51 275.999 748.659 272.296C746.808 268.594 743.85 265.736 739.785 263.724C735.72 261.671 730.347 260.645 723.666 260.645H697.345V371H682.373ZM740.569 315.46L770.996 371H753.609L723.666 315.46H740.569Z" fill="white"/>
<path d="M769.703 82.3636H784.675V170.744C784.675 178.633 783.226 185.334 780.328 190.847C777.43 196.361 773.345 200.547 768.073 203.404C762.801 206.262 756.583 207.69 749.419 207.69C742.658 207.69 736.641 206.463 731.368 204.008C726.096 201.513 721.951 197.971 718.932 193.383C715.914 188.795 714.405 183.341 714.405 177.023H729.135C729.135 180.524 730 183.583 731.731 186.199C733.502 188.775 735.916 190.787 738.975 192.236C742.034 193.685 745.515 194.409 749.419 194.409C753.725 194.409 757.388 193.504 760.406 191.692C763.425 189.881 765.719 187.225 767.288 183.724C768.898 180.182 769.703 175.856 769.703 170.744V82.3636Z" fill="white"/>
<path d="M529.735 246V365.729H513.985V276.458L474.194 365.729H463.131L423.152 276.271V365.729H407.402V246H424.36L468.652 344.958L512.964 246H529.735Z" fill="white"/>
<path d="M627.298 339.083H574.694L565.006 365.896H548.402L592.006 246H610.173L653.61 365.896H636.985L627.298 339.083ZM622.798 326.271L601.006 265.375L579.194 326.271H622.798Z" fill="white"/>
<path d="M0 215.697C26.9688 210.671 40.4583 196.791 40.4583 174.051C40.4583 164.01 39.1302 146.822 36.4792 122.489C33.8385 96.5877 32.5208 77.8169 32.5208 66.1762C32.5208 47.1346 37.875 32.5929 48.5833 22.5512C59.2917 12.4991 73.6302 7.4679 91.6042 7.4679H114.625V38.8012H98.3542C88.0469 38.8012 80.3802 41.1241 75.3542 45.7596C70.3229 50.3846 67.8125 57.9835 67.8125 68.5512C67.8125 76.2179 68.3385 85.671 69.3958 96.9054C70.4635 108.145 71.1302 115.749 71.3958 119.718C74.0313 145.093 75.3542 163.603 75.3542 175.239C75.3542 189.254 71.8438 200.957 64.8333 210.343C57.8333 219.734 47.0625 226.01 32.5208 229.176V229.968C47.0625 233.15 57.8333 239.499 64.8333 249.01C71.8438 258.525 75.3542 270.291 75.3542 284.301C75.3542 295.942 74.0313 314.447 71.3958 339.822C71.1302 343.796 70.4635 351.4 69.3958 362.635C68.3385 373.874 67.8125 383.322 67.8125 390.989C67.8125 401.572 70.3229 409.176 75.3542 413.801C80.3802 418.426 88.0469 420.739 98.3542 420.739H114.625V452.072H91.6042C73.6302 452.072 59.2917 447.041 48.5833 436.989C37.875 426.947 32.5208 412.405 32.5208 393.364C32.5208 381.739 33.8385 362.968 36.4792 337.051C39.1302 312.734 40.4583 295.546 40.4583 285.489C40.4583 262.754 26.9688 248.874 0 243.843V215.697Z" fill="#1AEDE6"/>
<path d="M949.819 238C922.662 243.057 909.089 257.036 909.089 279.938C909.089 290.052 910.423 307.354 913.089 331.854C915.74 357.938 917.069 376.839 917.069 388.563C917.069 407.729 911.678 422.365 900.902 432.479C890.121 442.589 875.678 447.646 857.569 447.646H834.402V416.104H850.777C861.162 416.104 868.886 413.771 873.944 409.104C878.996 404.448 881.527 396.802 881.527 386.167C881.527 378.443 880.99 368.927 879.923 357.604C878.865 346.286 878.204 338.635 877.944 334.646C875.277 309.094 873.944 290.453 873.944 278.729C873.944 264.62 877.47 252.771 884.527 243.188C891.579 233.604 902.428 227.219 917.069 224.021V223.229C902.428 220.036 891.579 213.719 884.527 204.271C877.47 194.813 873.944 183.031 873.944 168.917C873.944 157.208 875.277 138.578 877.944 113.021C878.204 109.021 878.865 101.37 879.923 90.0625C880.99 78.7448 881.527 69.224 881.527 61.5C881.527 50.849 878.996 43.1979 873.944 38.5417C868.886 33.875 861.162 31.5417 850.777 31.5417H834.402V0H857.569C875.678 0 890.121 5.0625 900.902 15.1875C911.678 25.3021 917.069 39.9375 917.069 59.1042C917.069 70.8125 915.74 89.7188 913.089 115.813C910.423 140.302 909.089 157.604 909.089 167.729C909.089 190.62 922.662 204.594 949.819 209.646V238Z" fill="#1AEDE6"/>
</svg>
